<svg width="199" height="296" viewBox="0 0 199 296" fill="none" xmlns="http://www.w3.org/2000/svg">
<g filter="url(#filter0_i)">
<path d="M47 1C47 1 10 37 1 46V257L69 291C99.3637 299.509 116.234 296.551 146 275L183 239C203.392 207.294 202.636 181.391 183 123C164.358 78.3381 137.366 51.8673 47 1Z" fill="#64FFDA"/>
</g>
<path d="M47 1C47 1 10 37 1 46V257L69 291C99.3637 299.509 116.234 296.551 146 275L183 239C203.392 207.294 202.636 181.391 183 123C164.358 78.3381 137.366 51.8673 47 1Z" stroke="black"/>
<g filter="url(#filter1_i)">
<path d="M56 204V79C128.313 118.97 157.36 231.557 140 242C122.64 252.443 87.0173 225.975 56 204Z" fill="#0A192F"/>
</g>
<path d="M56 204V79C128.313 118.97 157.36 231.557 140 242C122.64 252.443 87.0173 225.975 56 204Z" stroke="black"/>
<g filter="url(#filter2_i)">
<path d="M16 134V121L42 97V110L16 134Z" fill="#0A192F"/>
<path d="M16 188V171L42 147V162L16 188Z" fill="#0A192F"/>
<path d="M16 231V203L42 179V209L16 231Z" fill="#0A192F"/>
<path d="M78 278L16 248L49 221C67.2025 232.077 104 248 104 248C104 248 122.567 258.238 137 259C134.187 268.455 128.516 272.406 114 278C102.403 281.692 95.0215 282.444 78 278Z" fill="#0A192F"/>
</g>
<path d="M16 134V121L42 97V110L16 134Z" stroke="white"/>
<path d="M16 188V171L42 147V162L16 188Z" stroke="white"/>
<path d="M16 231V203L42 179V209L16 231Z" stroke="white"/>
<path d="M78 278L16 248L49 221C67.2025 232.077 104 248 104 248C104 248 122.567 258.238 137 259C134.187 268.455 128.516 272.406 114 278C102.403 281.692 95.0215 282.444 78 278Z" stroke="white"/>
<g filter="url(#filter3_i)">
<path d="M99 96C75.9266 75.4363 60.1316 65.1678 27 49L54 22C92.8302 38.7679 107.35 49.4264 130 69C153.691 92.1145 165.095 105.946 176 135L147 161C135.408 132.515 125.423 118.057 99 96Z" fill="#0A192F"/>
<path d="M160 196L155 184L186 155V173L160 196Z" fill="#0A192F"/>
</g>
<path d="M99 96C75.9266 75.4363 60.1316 65.1678 27 49L54 22C92.8302 38.7679 107.35 49.4264 130 69C153.691 92.1145 165.095 105.946 176 135L147 161C135.408 132.515 125.423 118.057 99 96Z" stroke="white"/>
<path d="M160 196L155 184L186 155V173L160 196Z" stroke="white"/>
<defs>
<filter id="filter0_i" x="0.5" y="0.380859" width="198.012" height="299.542" filterUnits="userSpaceOnUse" color-interpolation-filters="sRGB">
<feFlood flood-opacity="0" result="BackgroundImageFix"/>
<feBlend mode="normal" in="SourceGraphic" in2="BackgroundImageFix" result="shape"/>
<feColorMatrix in="SourceAlpha" type="matrix" values="0 0 0 0 0 0 0 0 0 0 0 0 0 0 0 0 0 0 127 0" result="hardAlpha"/>
<feOffset dy="4"/>
<feGaussianBlur stdDeviation="2"/>
<feComposite in2="hardAlpha" operator="arithmetic" k2="-1" k3="1"/>
<feColorMatrix type="matrix" values="0 0 0 0 0 0 0 0 0 0 0 0 0 0 0 0 0 0 0.25 0"/>
<feBlend mode="normal" in2="shape" result="effect1_innerShadow"/>
</filter>
<filter id="filter1_i" x="55.5" y="78.1523" width="89.8912" height="170.697" filterUnits="userSpaceOnUse" color-interpolation-filters="sRGB">
<feFlood flood-opacity="0" result="BackgroundImageFix"/>
<feBlend mode="normal" in="SourceGraphic" in2="BackgroundImageFix" result="shape"/>
<feColorMatrix in="SourceAlpha" type="matrix" values="0 0 0 0 0 0 0 0 0 0 0 0 0 0 0 0 0 0 127 0" result="hardAlpha"/>
<feOffset dy="4"/>
<feGaussianBlur stdDeviation="2"/>
<feComposite in2="hardAlpha" operator="arithmetic" k2="-1" k3="1"/>
<feColorMatrix type="matrix" values="0 0 0 0 0 0 0 0 0 0 0 0 0 0 0 0 0 0 0.25 0"/>
<feBlend mode="normal" in2="shape" result="effect1_innerShadow"/>
</filter>
<filter id="filter2_i" x="15.0772" y="95.858" width="122.583" height="189.7" filterUnits="userSpaceOnUse" color-interpolation-filters="sRGB">
<feFlood flood-opacity="0" result="BackgroundImageFix"/>
<feBlend mode="normal" in="SourceGraphic" in2="BackgroundImageFix" result="shape"/>
<feColorMatrix in="SourceAlpha" type="matrix" values="0 0 0 0 0 0 0 0 0 0 0 0 0 0 0 0 0 0 127 0" result="hardAlpha"/>
<feOffset dy="4"/>
<feGaussianBlur stdDeviation="2"/>
<feComposite in2="hardAlpha" operator="arithmetic" k2="-1" k3="1"/>
<feColorMatrix type="matrix" values="0 0 0 0 0 0 0 0 0 0 0 0 0 0 0 0 0 0 0.25 0"/>
<feBlend mode="normal" in2="shape" result="effect1_innerShadow"/>
</filter>
<filter id="filter3_i" x="26.1509" y="21.4064" width="160.349" height="179.432" filterUnits="userSpaceOnUse" color-interpolation-filters="sRGB">
<feFlood flood-opacity="0" result="BackgroundImageFix"/>
<feBlend mode="normal" in="SourceGraphic" in2="BackgroundImageFix" result="shape"/>
<feColorMatrix in="SourceAlpha" type="matrix" values="0 0 0 0 0 0 0 0 0 0 0 0 0 0 0 0 0 0 127 0" result="hardAlpha"/>
<feOffset dy="4"/>
<feGaussianBlur stdDeviation="2"/>
<feComposite in2="hardAlpha" operator="arithmetic" k2="-1" k3="1"/>
<feColorMatrix type="matrix" values="0 0 0 0 0 0 0 0 0 0 0 0 0 0 0 0 0 0 0.25 0"/>
<feBlend mode="normal" in2="shape" result="effect1_innerShadow"/>
</filter>
</defs>
</svg>
